<?xml version="1.0" standalone="no"?>
<!DOCTYPE svg PUBLIC "-//W3C//DTD SVG 20010904//EN"
 "http://www.w3.org/TR/2001/REC-SVG-20010904/DTD/svg10.dtd">
<svg version="1.0" xmlns="http://www.w3.org/2000/svg"
 width="832.000000pt" height="828.000000pt" viewBox="0 0 832.000000 828.000000"
 preserveAspectRatio="xMidYMid meet">

<g transform="translate(0.000000,828.000000) scale(0.100000,-0.100000)"
fill="#000000" stroke="none">
<path d="M4165 5984 c-434 -48 -803 -241 -1083 -566 -107 -125 -162 -209 -238
-363 -267 -543 -272 -1247 -12 -1773 17 -34 33 -61 35 -59 2 2 -10 37 -26 76
-16 40 -27 79 -25 86 3 7 1 16 -5 20 -6 3 -11 27 -11 53 0 26 -6 56 -13 67 -7
11 -14 52 -16 90 -1 39 -7 88 -13 110 -6 22 -7 69 -4 107 4 40 3 84 -4 109
-14 50 2 222 31 344 10 45 19 101 19 126 0 25 5 50 12 57 7 7 13 40 15 74 2
37 11 73 21 88 21 32 42 89 42 117 0 30 40 104 51 97 5 -3 9 4 9 16 0 11 7 23
16 27 10 4 14 13 10 29 -4 16 0 27 14 37 11 7 17 17 13 20 -3 4 -1 7 5 7 7 0
12 14 12 30 0 25 4 30 25 30 20 0 25 5 25 25 0 30 20 77 37 88 7 4 13 16 13
25 0 9 14 23 30 30 17 8 30 20 30 28 0 8 7 17 15 20 8 4 15 12 15 20 0 8 9 14
20 14 11 0 27 11 36 25 9 14 23 25 30 25 9 0 14 11 14 29 0 26 4 30 33 33 23
2 32 8 31 21 -1 10 5 17 17 17 11 0 19 6 19 14 0 8 7 16 15 20 8 3 15 1 15 -4
0 -16 30 -11 36 5 4 10 14 13 31 9 24 -6 25 -5 21 29 -3 32 -1 37 22 41 14 3
34 5 44 3 29 -3 30 20 1 27 -24 6 -36 26 -15 26 6 0 10 7 10 15 0 9 10 19 23
24 13 5 29 16 36 25 16 19 38 21 43 4 2 -6 21 6 43 27 31 32 39 36 44 22 4
-10 11 -13 19 -8 8 5 12 12 10 17 -1 5 9 10 25 12 15 2 27 -1 27 -7 0 -6 -7
-11 -15 -11 -8 0 -15 -5 -15 -11 0 -6 7 -8 16 -5 9 3 20 6 26 6 6 0 8 11 6 25
-4 20 1 28 25 40 17 8 40 15 52 15 13 0 28 7 35 15 16 19 36 19 43 1 10 -26
69 -25 103 0 17 13 39 24 49 24 10 0 23 7 30 16 10 14 17 15 50 4 32 -10 47
-10 102 5 52 14 67 15 73 5 6 -10 16 -10 49 4 50 20 51 20 51 1 0 -18 12 -19
27 -4 8 8 17 7 34 -5 13 -9 43 -16 69 -16 25 0 51 -5 58 -12 9 -9 12 -8 12 7
0 17 1 16 18 -3 20 -22 73 -25 80 -3 2 6 8 11 13 11 4 0 6 -7 2 -16 -5 -14 0
-15 35 -9 31 5 43 3 47 -7 3 -7 18 -13 33 -14 34 -1 142 -52 235 -111 37 -24
67 -40 67 -35 -1 13 -122 89 -240 150 -219 115 -438 171 -685 177 -77 2 -158
1 -180 -1z m702 -120 c-3 -3 -12 -4 -19 -1 -8 3 -5 6 6 6 11 1 17 -2 13 -5z"/>
<path d="M6441 5847 c-5 -68 -141 -209 -331 -343 -137 -97 -221 -143 -273
-150 -26 -4 -47 -11 -47 -15 0 -14 20 -11 102 17 43 14 78 30 78 35 0 6 9 7
21 4 15 -5 19 -4 14 5 -6 9 -3 9 15 0 20 -11 21 -10 11 9 -10 17 -9 20 4 15 8
-4 15 -2 15 4 0 5 12 7 28 4 24 -5 26 -4 13 11 -12 15 -10 17 17 17 17 0 33
-6 36 -12 3 -7 3 -3 1 8 -5 18 -2 21 18 17 14 -3 31 2 40 11 12 13 21 14 42 6
38 -14 36 -15 98 47 70 70 117 169 100 212 -6 17 -6 36 -1 51 5 13 7 33 5 45
-4 17 -5 17 -6 2z"/>
<path d="M6200 5450 c0 -5 5 -10 10 -10 6 0 10 5 10 10 0 6 -4 10 -10 10 -5 0
-10 -4 -10 -10z"/>
<path d="M5688 5343 c6 -2 18 -2 25 0 6 3 1 5 -13 5 -14 0 -19 -2 -12 -5z"/>
<path d="M6900 4014 c0 -463 -70 -930 -188 -1251 -17 -45 -59 -139 -94 -210
-77 -157 -75 -151 -55 -134 10 7 17 20 17 27 0 8 20 35 45 62 25 26 45 51 45
56 0 4 -9 -2 -20 -15 l-20 -24 16 37 c10 20 21 35 26 32 4 -3 5 1 2 9 -3 8 -1
18 5 22 6 3 11 15 11 26 0 13 4 18 12 13 8 -5 9 0 5 15 -3 14 1 26 16 37 16
12 17 15 5 11 -24 -8 -23 9 2 30 11 10 20 24 20 33 0 8 7 24 15 34 9 11 12 30
9 45 -5 21 -3 23 6 11 9 -12 10 -9 5 16 -4 20 1 45 14 75 11 24 21 37 22 29 1
-23 27 52 28 80 0 23 -1 24 -10 5 -8 -17 -9 -17 -4 5 2 14 5 30 5 35 0 6 5 3
10 -5 6 -10 7 -2 3 25 -3 22 -2 37 2 33 7 -7 20 8 41 51 4 7 1 16 -5 21 -10 5
-9 9 2 13 16 6 13 40 -4 62 -4 6 -6 24 -4 40 2 17 4 36 4 43 1 7 6 10 12 6 8
-4 9 0 4 15 -4 12 -2 21 4 21 14 0 15 97 1 102 -7 2 -7 20 -1 54 9 47 4 553
-5 563 -2 2 -4 -67 -4 -155z"/>
<path d="M5448 3540 c127 -8 140 -15 152 -77 l8 -38 1 33 c0 19 -7 47 -16 63
l-17 29 -121 -2 -120 -1 113 -7z"/>
<path d="M6901 3344 c0 -11 3 -14 6 -6 3 7 2 16 -1 19 -3 4 -6 -2 -5 -13z"/>
<path d="M6532 2388 c-17 -22 -44 -80 -39 -85 3 -2 8 5 12 16 3 12 11 18 17
15 6 -4 8 -2 5 3 -4 6 3 22 14 37 11 14 16 26 11 26 -5 0 -14 -6 -20 -12z"/>
<path d="M6460 2279 c-16 -31 -117 -166 -130 -174 -6 -3 -14 -14 -20 -24 -7
-15 -6 -20 9 -24 13 -3 17 0 14 12 -2 9 13 33 35 57 22 22 42 49 46 60 3 11
22 36 43 57 25 27 33 41 25 49 -7 7 -14 3 -22 -13z"/>
<path d="M6267 2032 c-19 -20 -22 -32 -9 -32 5 0 14 11 20 25 14 30 11 31 -11
7z"/>
<path d="M6175 1937 c-22 -24 -76 -76 -120 -116 -82 -75 -78 -78 9 -6 53 43
166 152 166 160 0 13 -19 0 -55 -38z"/>
<path d="M5913 1708 c-24 -16 -43 -34 -42 -41 0 -9 2 -9 6 1 2 6 10 12 16 12
13 1 71 49 66 55 -2 1 -23 -10 -46 -27z"/>
<path d="M5774 1612 c-76 -50 -79 -53 -26 -26 29 15 57 33 63 41 16 19 9 16
-37 -15z"/>
<path d="M5620 1520 c-30 -16 -51 -29 -47 -30 10 0 107 49 107 55 0 7 1 7 -60
-25z"/>
<path d="M5510 1464 c-25 -14 -36 -22 -25 -19 57 19 75 28 75 36 0 11 3 12
-50 -17z"/>
<path d="M5305 1380 c-16 -7 -17 -9 -3 -9 9 -1 20 4 23 9 7 11 7 11 -20 0z"/>
<path d="M5135 1320 c-13 -5 -14 -9 -5 -9 8 0 24 4 35 9 13 5 14 9 5 9 -8 0
-24 -4 -35 -9z"/>
<path d="M5088 1303 c7 -3 16 -2 19 1 4 3 -2 6 -13 5 -11 0 -14 -3 -6 -6z"/>
<path d="M4813 1243 c9 -2 23 -2 30 0 6 3 -1 5 -18 5 -16 0 -22 -2 -12 -5z"/>
<path d="M4758 1233 c7 -3 16 -2 19 1 4 3 -2 6 -13 5 -11 0 -14 -3 -6 -6z"/>
<path d="M4718 1223 c7 -3 16 -2 19 1 4 3 -2 6 -13 5 -11 0 -14 -3 -6 -6z"/>
<path d="M6975 296 c-33 -13 -67 -25 -75 -28 -18 -7 -218 -45 -275 -53 -298
-40 -411 -42 -2945 -51 -904 -3 -1646 -7 -1648 -8 -12 -13 742 -17 2443 -14
2160 4 1955 -1 2245 58 57 12 181 51 190 60 3 3 15 6 28 7 27 3 134 52 112 51
-8 0 -42 -10 -75 -22z"/>
</g>
</svg>
